<svg width="40" height="40" viewBox="0 0 40 40" fill="none" xmlns="http://www.w3.org/2000/svg">
<rect width="40" height="40" rx="6" fill="#22C55E"/>
<path d="M23.8928 15.2138C23.8194 14.4065 23.4928 13.779 22.913 13.3313C22.3406 12.8763 21.5223 12.6488 20.4581 12.6488C19.7536 12.6488 19.1664 12.7405 18.6967 12.924C18.227 13.1075 17.8748 13.3607 17.6399 13.6836C17.4051 13.9992 17.284 14.3625 17.2766 14.7734C17.262 15.111 17.328 15.4083 17.4748 15.6651C17.6289 15.922 17.8491 16.1495 18.1353 16.3477C18.4289 16.5385 18.7811 16.7073 19.1921 16.854C19.6031 17.0008 20.0655 17.1293 20.5792 17.2393L22.5167 17.6797C23.6322 17.9219 24.6156 18.2448 25.467 18.6484C26.3256 19.0521 27.0449 19.5328 27.6246 20.0906C28.2118 20.6483 28.6558 21.2905 28.9567 22.017C29.2576 22.7436 29.4117 23.5582 29.419 24.4609C29.4117 25.8847 29.0521 27.1067 28.3402 28.1268C27.6283 29.1469 26.6045 29.9285 25.2688 30.4716C23.9405 31.0147 22.3369 31.2862 20.4581 31.2862C18.572 31.2862 16.928 31.0037 15.5263 30.4386C14.1245 29.8735 13.0347 29.0148 12.2567 27.8626C11.4788 26.7103 11.0788 25.2536 11.0568 23.4922H16.2749C16.3189 24.2188 16.5134 24.8242 16.8583 25.3086C17.2032 25.793 17.6766 26.1599 18.2784 26.4094C18.8875 26.659 19.5921 26.7837 20.392 26.7837C21.1259 26.7837 21.7498 26.6847 22.2635 26.4865C22.7846 26.2884 23.1845 26.0131 23.4634 25.6609C23.7423 25.3086 23.8854 24.9049 23.8928 24.4499C23.8854 24.0243 23.7533 23.661 23.4964 23.3601C23.2396 23.0518 22.8433 22.7876 22.3075 22.5675C21.7791 22.34 21.1039 22.1308 20.282 21.94L17.9261 21.3896C15.974 20.9419 14.4364 20.219 13.3136 19.2209C12.1907 18.2154 11.6329 16.8577 11.6403 15.1477C11.6329 13.7533 12.0072 12.5314 12.7631 11.4819C13.5191 10.4324 14.5649 9.61411 15.9006 9.02699C17.2363 8.43987 18.7591 8.14631 20.4691 8.14631C22.2158 8.14631 23.7313 8.44354 25.0156 9.038C26.3073 9.62512 27.3091 10.4508 28.021 11.5149C28.7328 12.5791 29.0961 13.812 29.1108 15.2138H23.8928Z" fill="white"/>
</svg>